<mxfile host="Electron" modified="2023-04-15T02:07:21.748Z" agent="Mozilla/5.0 (Windows NT 10.0; Win64; x64) AppleWebKit/537.36 (KHTML, like Gecko) draw.io/21.1.2 Chrome/106.0.5249.199 Electron/21.4.3 Safari/537.36" etag="vML77NcLEfCFhIMkQNMT" version="21.1.2" type="device">
  <diagram name="Page-1" id="H0wz1IlsxG29JuE95awO">
    <mxGraphModel dx="1118" dy="812" grid="1" gridSize="10" guides="1" tooltips="1" connect="1" arrows="1" fold="1" page="1" pageScale="1" pageWidth="850" pageHeight="1100" math="0" shadow="0">
      <root>
        <mxCell id="0" />
        <mxCell id="1" parent="0" />
        <mxCell id="JrejViipNZTAxpyAIgZA-3" style="edgeStyle=orthogonalEdgeStyle;rounded=0;orthogonalLoop=1;jettySize=auto;html=1;exitX=1;exitY=0.5;exitDx=0;exitDy=0;" edge="1" parent="1" source="JrejViipNZTAxpyAIgZA-1" target="JrejViipNZTAxpyAIgZA-2">
          <mxGeometry relative="1" as="geometry" />
        </mxCell>
        <mxCell id="JrejViipNZTAxpyAIgZA-1" value="User searches" style="rounded=1;whiteSpace=wrap;html=1;" vertex="1" parent="1">
          <mxGeometry x="70" y="510" width="110" height="60" as="geometry" />
        </mxCell>
        <mxCell id="JrejViipNZTAxpyAIgZA-10" style="edgeStyle=orthogonalEdgeStyle;rounded=0;orthogonalLoop=1;jettySize=auto;html=1;exitX=1;exitY=0.75;exitDx=0;exitDy=0;entryX=0;entryY=0.5;entryDx=0;entryDy=0;" edge="1" parent="1" source="JrejViipNZTAxpyAIgZA-2" target="JrejViipNZTAxpyAIgZA-9">
          <mxGeometry relative="1" as="geometry">
            <Array as="points">
              <mxPoint x="483" y="555" />
              <mxPoint x="483" y="630" />
              <mxPoint x="540" y="630" />
            </Array>
          </mxGeometry>
        </mxCell>
        <mxCell id="JrejViipNZTAxpyAIgZA-2" value="load search results" style="rounded=0;whiteSpace=wrap;html=1;fillColor=#f8cecc;strokeColor=#b85450;" vertex="1" parent="1">
          <mxGeometry x="305" y="510" width="120" height="60" as="geometry" />
        </mxCell>
        <mxCell id="JrejViipNZTAxpyAIgZA-4" value="render search result" style="strokeWidth=2;html=1;shape=mxgraph.flowchart.multi-document;whiteSpace=wrap;" vertex="1" parent="1">
          <mxGeometry x="540" y="510" width="88" height="60" as="geometry" />
        </mxCell>
        <mxCell id="JrejViipNZTAxpyAIgZA-6" style="edgeStyle=orthogonalEdgeStyle;rounded=0;orthogonalLoop=1;jettySize=auto;html=1;exitX=1;exitY=0.5;exitDx=0;exitDy=0;exitPerimeter=0;entryX=0.5;entryY=0.88;entryDx=0;entryDy=0;entryPerimeter=0;" edge="1" parent="1" source="JrejViipNZTAxpyAIgZA-5" target="JrejViipNZTAxpyAIgZA-4">
          <mxGeometry relative="1" as="geometry">
            <Array as="points">
              <mxPoint x="165" y="600" />
              <mxPoint x="584" y="600" />
            </Array>
          </mxGeometry>
        </mxCell>
        <mxCell id="JrejViipNZTAxpyAIgZA-11" style="edgeStyle=orthogonalEdgeStyle;rounded=0;orthogonalLoop=1;jettySize=auto;html=1;exitX=1;exitY=0.5;exitDx=0;exitDy=0;exitPerimeter=0;" edge="1" parent="1" source="JrejViipNZTAxpyAIgZA-5">
          <mxGeometry relative="1" as="geometry">
            <mxPoint x="540" y="640" as="targetPoint" />
          </mxGeometry>
        </mxCell>
        <mxCell id="JrejViipNZTAxpyAIgZA-5" value="User clicks&lt;br&gt;pagnation" style="html=1;dashed=0;whiteSpace=wrap;shape=mxgraph.dfd.start" vertex="1" parent="1">
          <mxGeometry x="85" y="620" width="80" height="40" as="geometry" />
        </mxCell>
        <mxCell id="JrejViipNZTAxpyAIgZA-9" value="render paganation" style="rounded=0;whiteSpace=wrap;html=1;" vertex="1" parent="1">
          <mxGeometry x="540" y="610" width="120" height="60" as="geometry" />
        </mxCell>
        <mxCell id="JrejViipNZTAxpyAIgZA-12" value="" style="html=1;labelBackgroundColor=#ffffff;startArrow=none;startFill=0;startSize=6;endArrow=classic;endFill=1;endSize=6;jettySize=auto;orthogonalLoop=1;strokeWidth=1;dashed=1;fontSize=14;rounded=0;exitX=0;exitY=0;exitDx=74.14;exitDy=34.14;exitPerimeter=0;" edge="1" parent="1" source="JrejViipNZTAxpyAIgZA-5">
          <mxGeometry width="60" height="60" relative="1" as="geometry">
            <mxPoint x="320" y="610" as="sourcePoint" />
            <mxPoint x="159" y="654" as="targetPoint" />
            <Array as="points">
              <mxPoint x="540" y="654" />
            </Array>
          </mxGeometry>
        </mxCell>
        <mxCell id="JrejViipNZTAxpyAIgZA-13" value="bind handler" style="text;html=1;align=center;verticalAlign=middle;resizable=0;points=[];autosize=1;strokeColor=none;fillColor=none;" vertex="1" parent="1">
          <mxGeometry x="305" y="655" width="90" height="30" as="geometry" />
        </mxCell>
        <mxCell id="JrejViipNZTAxpyAIgZA-15" value="Async" style="text;html=1;strokeColor=none;fillColor=none;align=center;verticalAlign=middle;whiteSpace=wrap;rounded=0;" vertex="1" parent="1">
          <mxGeometry x="335" y="480" width="60" height="30" as="geometry" />
        </mxCell>
        <mxCell id="JrejViipNZTAxpyAIgZA-16" value="" style="html=1;labelBackgroundColor=#ffffff;startArrow=none;startFill=0;startSize=6;endArrow=classic;endFill=1;endSize=6;jettySize=auto;orthogonalLoop=1;strokeWidth=1;dashed=1;fontSize=14;rounded=0;exitX=1;exitY=0.5;exitDx=0;exitDy=0;exitPerimeter=0;" edge="1" parent="1" source="JrejViipNZTAxpyAIgZA-4">
          <mxGeometry width="60" height="60" relative="1" as="geometry">
            <mxPoint x="320" y="610" as="sourcePoint" />
            <mxPoint x="840" y="540" as="targetPoint" />
          </mxGeometry>
        </mxCell>
        <mxCell id="JrejViipNZTAxpyAIgZA-17" value="bind handler" style="text;html=1;align=center;verticalAlign=middle;resizable=0;points=[];autosize=1;strokeColor=none;fillColor=none;" vertex="1" parent="1">
          <mxGeometry x="680" y="510" width="90" height="30" as="geometry" />
        </mxCell>
        <mxCell id="JrejViipNZTAxpyAIgZA-20" style="edgeStyle=orthogonalEdgeStyle;rounded=0;orthogonalLoop=1;jettySize=auto;html=1;exitX=0.5;exitY=0.5;exitDx=0;exitDy=-15;exitPerimeter=0;entryX=0.5;entryY=0;entryDx=0;entryDy=0;entryPerimeter=0;" edge="1" parent="1" source="JrejViipNZTAxpyAIgZA-19" target="JrejViipNZTAxpyAIgZA-4">
          <mxGeometry relative="1" as="geometry">
            <Array as="points">
              <mxPoint x="880" y="490" />
              <mxPoint x="584" y="490" />
            </Array>
          </mxGeometry>
        </mxCell>
        <mxCell id="JrejViipNZTAxpyAIgZA-24" style="edgeStyle=orthogonalEdgeStyle;rounded=0;orthogonalLoop=1;jettySize=auto;html=1;exitX=1;exitY=0.5;exitDx=0;exitDy=0;exitPerimeter=0;entryX=0;entryY=0.5;entryDx=0;entryDy=0;" edge="1" parent="1" source="JrejViipNZTAxpyAIgZA-19" target="JrejViipNZTAxpyAIgZA-23">
          <mxGeometry relative="1" as="geometry" />
        </mxCell>
        <mxCell id="JrejViipNZTAxpyAIgZA-19" value="user selects recepie" style="html=1;dashed=0;whiteSpace=wrap;shape=mxgraph.dfd.start" vertex="1" parent="1">
          <mxGeometry x="840" y="525" width="80" height="30" as="geometry" />
        </mxCell>
        <mxCell id="JrejViipNZTAxpyAIgZA-21" value="Mark seelcted results" style="text;html=1;align=center;verticalAlign=middle;resizable=0;points=[];autosize=1;strokeColor=none;fillColor=none;" vertex="1" parent="1">
          <mxGeometry x="655" y="465" width="130" height="30" as="geometry" />
        </mxCell>
        <mxCell id="JrejViipNZTAxpyAIgZA-28" style="edgeStyle=orthogonalEdgeStyle;rounded=0;orthogonalLoop=1;jettySize=auto;html=1;exitX=1;exitY=0.5;exitDx=0;exitDy=0;entryX=0;entryY=0.5;entryDx=0;entryDy=0;" edge="1" parent="1" source="JrejViipNZTAxpyAIgZA-23" target="JrejViipNZTAxpyAIgZA-27">
          <mxGeometry relative="1" as="geometry" />
        </mxCell>
        <mxCell id="JrejViipNZTAxpyAIgZA-23" value="load recepie" style="rounded=0;whiteSpace=wrap;html=1;fillColor=#e1d5e7;strokeColor=#9673a6;" vertex="1" parent="1">
          <mxGeometry x="1050" y="510" width="120" height="60" as="geometry" />
        </mxCell>
        <mxCell id="JrejViipNZTAxpyAIgZA-26" style="edgeStyle=orthogonalEdgeStyle;rounded=0;orthogonalLoop=1;jettySize=auto;html=1;exitX=0;exitY=0;exitDx=75.605;exitDy=4.395000000000001;exitPerimeter=0;entryX=0;entryY=0.75;entryDx=0;entryDy=0;" edge="1" parent="1" source="JrejViipNZTAxpyAIgZA-25" target="JrejViipNZTAxpyAIgZA-23">
          <mxGeometry relative="1" as="geometry" />
        </mxCell>
        <mxCell id="JrejViipNZTAxpyAIgZA-25" value="Page laods with recepie id" style="html=1;dashed=0;whiteSpace=wrap;shape=mxgraph.dfd.start" vertex="1" parent="1">
          <mxGeometry x="840" y="625" width="80" height="30" as="geometry" />
        </mxCell>
        <mxCell id="JrejViipNZTAxpyAIgZA-27" value="render recepie" style="rounded=0;whiteSpace=wrap;html=1;fillColor=#d5e8d4;strokeColor=#82b366;" vertex="1" parent="1">
          <mxGeometry x="1260" y="510" width="120" height="60" as="geometry" />
        </mxCell>
      </root>
    </mxGraphModel>
  </diagram>
</mxfile>
